<mxfile host="Electron" agent="Mozilla/5.0 (Windows NT 10.0; Win64; x64) AppleWebKit/537.36 (KHTML, like Gecko) draw.io/24.7.17 Chrome/128.0.6613.36 Electron/32.0.1 Safari/537.36" version="24.7.17">
  <diagram name="PÃ¡gina-1" id="5NxZYJbI6RcJZp64tfGE">
    <mxGraphModel dx="1985" dy="2467" grid="1" gridSize="10" guides="1" tooltips="1" connect="1" arrows="1" fold="1" page="1" pageScale="1" pageWidth="827" pageHeight="1169" math="0" shadow="0">
      <root>
        <mxCell id="0" />
        <mxCell id="1" parent="0" />
        <mxCell id="W_yHbRjpO7YZSNlHlgjX-1" value="Usuario registrado" style="shape=umlActor;verticalLabelPosition=bottom;verticalAlign=top;html=1;outlineConnect=0;" vertex="1" parent="1">
          <mxGeometry x="199" y="-190" width="30" height="60" as="geometry" />
        </mxCell>
        <mxCell id="W_yHbRjpO7YZSNlHlgjX-2" value="" style="endArrow=classic;html=1;rounded=0;entryX=0;entryY=0.5;entryDx=0;entryDy=0;" edge="1" parent="1" source="W_yHbRjpO7YZSNlHlgjX-14" target="W_yHbRjpO7YZSNlHlgjX-3">
          <mxGeometry width="50" height="50" relative="1" as="geometry">
            <mxPoint x="341" y="140" as="sourcePoint" />
            <mxPoint x="463.5" y="420" as="targetPoint" />
          </mxGeometry>
        </mxCell>
        <mxCell id="W_yHbRjpO7YZSNlHlgjX-3" value="Registrarse" style="ellipse;whiteSpace=wrap;html=1;" vertex="1" parent="1">
          <mxGeometry x="337.5" y="20" width="90" height="80" as="geometry" />
        </mxCell>
        <mxCell id="W_yHbRjpO7YZSNlHlgjX-4" value="Inciar sesion" style="ellipse;whiteSpace=wrap;html=1;" vertex="1" parent="1">
          <mxGeometry x="321.5" y="-210" width="90" height="80" as="geometry" />
        </mxCell>
        <mxCell id="W_yHbRjpO7YZSNlHlgjX-5" value="Cerrar sesion" style="ellipse;whiteSpace=wrap;html=1;" vertex="1" parent="1">
          <mxGeometry x="324" y="-100" width="90" height="80" as="geometry" />
        </mxCell>
        <mxCell id="W_yHbRjpO7YZSNlHlgjX-6" value="" style="endArrow=classic;html=1;rounded=0;entryX=0.044;entryY=0.417;entryDx=0;entryDy=0;entryPerimeter=0;" edge="1" parent="1" source="W_yHbRjpO7YZSNlHlgjX-1" target="W_yHbRjpO7YZSNlHlgjX-4">
          <mxGeometry width="50" height="50" relative="1" as="geometry">
            <mxPoint x="259" y="-50" as="sourcePoint" />
            <mxPoint x="309" y="-100" as="targetPoint" />
          </mxGeometry>
        </mxCell>
        <mxCell id="W_yHbRjpO7YZSNlHlgjX-7" value="" style="endArrow=classic;html=1;rounded=0;" edge="1" parent="1" source="W_yHbRjpO7YZSNlHlgjX-1" target="W_yHbRjpO7YZSNlHlgjX-5">
          <mxGeometry width="50" height="50" relative="1" as="geometry">
            <mxPoint x="219" y="70" as="sourcePoint" />
            <mxPoint x="269" y="20" as="targetPoint" />
          </mxGeometry>
        </mxCell>
        <mxCell id="W_yHbRjpO7YZSNlHlgjX-8" value="Pedir turno" style="ellipse;whiteSpace=wrap;html=1;" vertex="1" parent="1">
          <mxGeometry x="329" y="-320" width="85" height="80" as="geometry" />
        </mxCell>
        <mxCell id="W_yHbRjpO7YZSNlHlgjX-10" value="" style="endArrow=classic;html=1;rounded=0;entryX=0.053;entryY=0.763;entryDx=0;entryDy=0;entryPerimeter=0;" edge="1" parent="1" source="W_yHbRjpO7YZSNlHlgjX-1" target="W_yHbRjpO7YZSNlHlgjX-8">
          <mxGeometry width="50" height="50" relative="1" as="geometry">
            <mxPoint x="229" y="-160" as="sourcePoint" />
            <mxPoint x="299" y="-260" as="targetPoint" />
          </mxGeometry>
        </mxCell>
        <mxCell id="W_yHbRjpO7YZSNlHlgjX-11" value="Servidor de puntos" style="shape=umlActor;verticalLabelPosition=bottom;verticalAlign=top;html=1;outlineConnect=0;" vertex="1" parent="1">
          <mxGeometry x="890" y="120" width="30" height="60" as="geometry" />
        </mxCell>
        <mxCell id="W_yHbRjpO7YZSNlHlgjX-12" value="Sumar puntos" style="ellipse;whiteSpace=wrap;html=1;" vertex="1" parent="1">
          <mxGeometry x="590" y="50" width="90" height="80" as="geometry" />
        </mxCell>
        <mxCell id="W_yHbRjpO7YZSNlHlgjX-13" value="" style="endArrow=none;html=1;rounded=0;entryX=1;entryY=0.5;entryDx=0;entryDy=0;" edge="1" parent="1" source="W_yHbRjpO7YZSNlHlgjX-11" target="W_yHbRjpO7YZSNlHlgjX-12">
          <mxGeometry width="50" height="50" relative="1" as="geometry">
            <mxPoint x="650" y="200" as="sourcePoint" />
            <mxPoint x="700" y="150" as="targetPoint" />
          </mxGeometry>
        </mxCell>
        <mxCell id="W_yHbRjpO7YZSNlHlgjX-14" value="Usuario no registrado" style="shape=umlActor;verticalLabelPosition=bottom;verticalAlign=top;html=1;outlineConnect=0;" vertex="1" parent="1">
          <mxGeometry x="210" y="30" width="30" height="60" as="geometry" />
        </mxCell>
        <mxCell id="W_yHbRjpO7YZSNlHlgjX-15" value="Secretaria" style="shape=umlActor;verticalLabelPosition=bottom;verticalAlign=top;html=1;outlineConnect=0;" vertex="1" parent="1">
          <mxGeometry x="210" y="190" width="30" height="60" as="geometry" />
        </mxCell>
        <mxCell id="W_yHbRjpO7YZSNlHlgjX-18" value="registrar llegada" style="ellipse;whiteSpace=wrap;html=1;" vertex="1" parent="1">
          <mxGeometry x="329" y="180" width="91" height="80" as="geometry" />
        </mxCell>
        <mxCell id="W_yHbRjpO7YZSNlHlgjX-19" value="" style="endArrow=classic;html=1;rounded=0;entryX=0;entryY=0.5;entryDx=0;entryDy=0;" edge="1" parent="1" source="W_yHbRjpO7YZSNlHlgjX-15" target="W_yHbRjpO7YZSNlHlgjX-18">
          <mxGeometry width="50" height="50" relative="1" as="geometry">
            <mxPoint x="290" y="330" as="sourcePoint" />
            <mxPoint x="340" y="280" as="targetPoint" />
          </mxGeometry>
        </mxCell>
        <mxCell id="W_yHbRjpO7YZSNlHlgjX-20" value="" style="endArrow=none;html=1;rounded=0;entryX=0;entryY=0.5;entryDx=0;entryDy=0;exitX=1;exitY=0.5;exitDx=0;exitDy=0;" edge="1" parent="1" source="W_yHbRjpO7YZSNlHlgjX-18" target="W_yHbRjpO7YZSNlHlgjX-12">
          <mxGeometry width="50" height="50" relative="1" as="geometry">
            <mxPoint x="540" y="190" as="sourcePoint" />
            <mxPoint x="590" y="140" as="targetPoint" />
          </mxGeometry>
        </mxCell>
        <mxCell id="W_yHbRjpO7YZSNlHlgjX-21" value="" style="whiteSpace=wrap;html=1;aspect=fixed;fillColor=none;" vertex="1" parent="1">
          <mxGeometry x="260" y="-340" width="610" height="610" as="geometry" />
        </mxCell>
      </root>
    </mxGraphModel>
  </diagram>
</mxfile>
